# xmcd
#
# Track frame offsets:
#	150
#	14887
#	26205
#	41157
#	56935
#	74545
#	87027
#	102045
#	120437
#	135445
#	148967
#	165057
#	178922
#	191830
#
# Disc length: 2719 seconds
#
# Revision: 3
# Processed by: cddbd v1.5.2PL0 Copyright (c) Steve Scherf et al.
# Submitted via: audiograbber 1.83.01
#
DISCID=cc0a9d0e
DTITLE=Ed Townsend - For Your Love - A Golden Classics Edition
DYEAR=1900
DGENRE=Oldies
TTITLE0=The More I See You
TTITLE1=Lover, Come Back To Me
TTITLE2=Till The End Of Time
TTITLE3=Do Nothing Till You Hear From Me
TTITLE4=Rockin' Chair
TTITLE5=Mam'selle
TTITLE6=I Am
TTITLE7=In The Still Of The Night
TTITLE8=Symphony
TTITLE9=Goin' My Way
TTITLE10=Prisoner Of Love
TTITLE11=New In Town
TTITLE12=For Your Love
TTITLE13=Please Never Change  
EXTD=
EXTT0=
EXTT1=
EXTT2=
EXTT3=
EXTT4=
EXTT5=
EXTT6=
EXTT7=
EXTT8=
EXTT9=
EXTT10=
EXTT11=
EXTT12=
EXTT13=
PLAYORDER=
